<?xml version="1.0" encoding="UTF-8"?>
<svg xmlns="http://www.w3.org/2000/svg" width="1600" height="1000" viewBox="0 0 1600 1000">
  <defs>
    <style>
      .small { font: 14px 'Segoe UI', Arial, sans-serif; fill: #1f2937; }
      .mono { font: 13px 'Consolas', 'Courier New', monospace; fill: #111827; }
      .note { font: 13px 'Segoe UI', Arial, sans-serif; fill: #374151; }
      .title { font: 700 32px 'Segoe UI', Arial, sans-serif; fill: #111827; }
      .subtitle { font: 600 18px 'Segoe UI', Arial, sans-serif; fill: #1f2937; }
    </style>
  </defs>
  <rect width="1600" height="1000" fill="#f8fafc"/>
<text x="60" y="70" font-family="Segoe UI, Arial, sans-serif" font-size="34" font-weight="700" fill="#111827" text-anchor="start">BeetMeister Controller Pinout</text>
<text x="60" y="104" font-family="Segoe UI, Arial, sans-serif" font-size="18" font-weight="600" fill="#334155" text-anchor="start">44-pin ESP32-S3 DevKitC-1 style board with canonical BeetMeister assignments</text>
<rect x="430" y="150" width="740" height="620" rx="28" fill="#0f172a" stroke="#020617" stroke-width="2"/>
<text x="800" y="220" font-family="Segoe UI, Arial, sans-serif" font-size="30" font-weight="700" fill="#f8fafc" text-anchor="middle">ESP32-S3</text>
<text x="800" y="255" font-family="Segoe UI, Arial, sans-serif" font-size="20" font-weight="600" fill="#cbd5e1" text-anchor="middle">WROOM-1-N16R8</text>
<text x="800" y="290" font-family="Segoe UI, Arial, sans-serif" font-size="15" font-weight="400" fill="#cbd5e1" text-anchor="middle">Pin plan locked to hardware/wiring/pin-assignment.md</text>
<circle cx="430" cy="175" r="5" fill="#e2e8f0" stroke="#cbd5e1" stroke-width="1"/>
<rect x="80" y="160" width="300" height="24" rx="10" fill="#ffffff" stroke="#94a3b8" stroke-width="1"/>
<text x="90" y="177" font-family="Segoe UI, Arial, sans-serif" font-size="14" font-weight="700" fill="#111827" text-anchor="start">3V3</text>
<line x1="380" y1="172" x2="422" y2="172" stroke="#94a3b8" stroke-width="1" stroke-linecap="round"/>
<circle cx="430" cy="202" r="5" fill="#e2e8f0" stroke="#cbd5e1" stroke-width="1"/>
<rect x="80" y="187" width="300" height="24" rx="10" fill="#ffffff" stroke="#94a3b8" stroke-width="1"/>
<text x="90" y="204" font-family="Segoe UI, Arial, sans-serif" font-size="14" font-weight="700" fill="#111827" text-anchor="start">3V3</text>
<line x1="380" y1="199" x2="422" y2="199" stroke="#94a3b8" stroke-width="1" stroke-linecap="round"/>
<circle cx="430" cy="229" r="5" fill="#e2e8f0" stroke="#cbd5e1" stroke-width="1"/>
<rect x="80" y="214" width="300" height="24" rx="10" fill="#ffffff" stroke="#94a3b8" stroke-width="1"/>
<text x="90" y="231" font-family="Segoe UI, Arial, sans-serif" font-size="14" font-weight="700" fill="#111827" text-anchor="start">RST</text>
<line x1="380" y1="226" x2="422" y2="226" stroke="#94a3b8" stroke-width="1" stroke-linecap="round"/>
<circle cx="430" cy="256" r="5" fill="#e2e8f0" stroke="#cbd5e1" stroke-width="1"/>
<rect x="80" y="241" width="300" height="24" rx="10" fill="#dceafe" stroke="#1d4ed8" stroke-width="1"/>
<text x="90" y="258" font-family="Segoe UI, Arial, sans-serif" font-size="14" font-weight="700" fill="#111827" text-anchor="start">GPIO4</text>
<text x="192" y="258" font-family="Segoe UI, Arial, sans-serif" font-size="13" font-weight="400" fill="#1d4ed8" text-anchor="start">Pair 7 moisture</text>
<line x1="380" y1="253" x2="422" y2="253" stroke="#94a3b8" stroke-width="1" stroke-linecap="round"/>
<circle cx="430" cy="283" r="5" fill="#e2e8f0" stroke="#cbd5e1" stroke-width="1"/>
<rect x="80" y="268" width="300" height="24" rx="10" fill="#dceafe" stroke="#1d4ed8" stroke-width="1"/>
<text x="90" y="285" font-family="Segoe UI, Arial, sans-serif" font-size="14" font-weight="700" fill="#111827" text-anchor="start">GPIO5</text>
<text x="192" y="285" font-family="Segoe UI, Arial, sans-serif" font-size="13" font-weight="400" fill="#1d4ed8" text-anchor="start">Pair 6 moisture</text>
<line x1="380" y1="280" x2="422" y2="280" stroke="#94a3b8" stroke-width="1" stroke-linecap="round"/>
<circle cx="430" cy="310" r="5" fill="#e2e8f0" stroke="#cbd5e1" stroke-width="1"/>
<rect x="80" y="295" width="300" height="24" rx="10" fill="#dceafe" stroke="#1d4ed8" stroke-width="1"/>
<text x="90" y="312" font-family="Segoe UI, Arial, sans-serif" font-size="14" font-weight="700" fill="#111827" text-anchor="start">GPIO6</text>
<text x="192" y="312" font-family="Segoe UI, Arial, sans-serif" font-size="13" font-weight="400" fill="#1d4ed8" text-anchor="start">Pair 5 moisture</text>
<line x1="380" y1="307" x2="422" y2="307" stroke="#94a3b8" stroke-width="1" stroke-linecap="round"/>
<circle cx="430" cy="337" r="5" fill="#e2e8f0" stroke="#cbd5e1" stroke-width="1"/>
<rect x="80" y="322" width="300" height="24" rx="10" fill="#dceafe" stroke="#1d4ed8" stroke-width="1"/>
<text x="90" y="339" font-family="Segoe UI, Arial, sans-serif" font-size="14" font-weight="700" fill="#111827" text-anchor="start">GPIO7</text>
<text x="192" y="339" font-family="Segoe UI, Arial, sans-serif" font-size="13" font-weight="400" fill="#1d4ed8" text-anchor="start">Pair 4 moisture</text>
<line x1="380" y1="334" x2="422" y2="334" stroke="#94a3b8" stroke-width="1" stroke-linecap="round"/>
<circle cx="430" cy="364" r="5" fill="#e2e8f0" stroke="#cbd5e1" stroke-width="1"/>
<rect x="80" y="349" width="300" height="24" rx="10" fill="#dcfce7" stroke="#166534" stroke-width="1"/>
<text x="90" y="366" font-family="Segoe UI, Arial, sans-serif" font-size="14" font-weight="700" fill="#111827" text-anchor="start">GPIO15</text>
<text x="192" y="366" font-family="Segoe UI, Arial, sans-serif" font-size="13" font-weight="400" fill="#166534" text-anchor="start">Sensor power EN</text>
<line x1="380" y1="361" x2="422" y2="361" stroke="#94a3b8" stroke-width="1" stroke-linecap="round"/>
<circle cx="430" cy="391" r="5" fill="#e2e8f0" stroke="#cbd5e1" stroke-width="1"/>
<rect x="80" y="376" width="300" height="24" rx="10" fill="#dcfce7" stroke="#166534" stroke-width="1"/>
<text x="90" y="393" font-family="Segoe UI, Arial, sans-serif" font-size="14" font-weight="700" fill="#111827" text-anchor="start">GPIO16</text>
<text x="192" y="393" font-family="Segoe UI, Arial, sans-serif" font-size="13" font-weight="400" fill="#166534" text-anchor="start">Boost enable</text>
<line x1="380" y1="388" x2="422" y2="388" stroke="#94a3b8" stroke-width="1" stroke-linecap="round"/>
<circle cx="430" cy="418" r="5" fill="#e2e8f0" stroke="#cbd5e1" stroke-width="1"/>
<rect x="80" y="403" width="300" height="24" rx="10" fill="#f3f4f6" stroke="#374151" stroke-width="1"/>
<text x="90" y="420" font-family="Segoe UI, Arial, sans-serif" font-size="14" font-weight="700" fill="#111827" text-anchor="start">GPIO17</text>
<text x="192" y="420" font-family="Segoe UI, Arial, sans-serif" font-size="13" font-weight="400" fill="#374151" text-anchor="start">Free expansion</text>
<line x1="380" y1="415" x2="422" y2="415" stroke="#94a3b8" stroke-width="1" stroke-linecap="round"/>
<circle cx="430" cy="445" r="5" fill="#e2e8f0" stroke="#cbd5e1" stroke-width="1"/>
<rect x="80" y="430" width="300" height="24" rx="10" fill="#f3f4f6" stroke="#374151" stroke-width="1"/>
<text x="90" y="447" font-family="Segoe UI, Arial, sans-serif" font-size="14" font-weight="700" fill="#111827" text-anchor="start">GPIO18</text>
<text x="192" y="447" font-family="Segoe UI, Arial, sans-serif" font-size="13" font-weight="400" fill="#374151" text-anchor="start">Free expansion</text>
<line x1="380" y1="442" x2="422" y2="442" stroke="#94a3b8" stroke-width="1" stroke-linecap="round"/>
<circle cx="430" cy="472" r="5" fill="#e2e8f0" stroke="#cbd5e1" stroke-width="1"/>
<rect x="80" y="457" width="300" height="24" rx="10" fill="#dceafe" stroke="#1d4ed8" stroke-width="1"/>
<text x="90" y="474" font-family="Segoe UI, Arial, sans-serif" font-size="14" font-weight="700" fill="#111827" text-anchor="start">GPIO8</text>
<text x="192" y="474" font-family="Segoe UI, Arial, sans-serif" font-size="13" font-weight="400" fill="#1d4ed8" text-anchor="start">Pair 3 moisture</text>
<line x1="380" y1="469" x2="422" y2="469" stroke="#94a3b8" stroke-width="1" stroke-linecap="round"/>
<circle cx="430" cy="499" r="5" fill="#e2e8f0" stroke="#cbd5e1" stroke-width="1"/>
<rect x="80" y="484" width="300" height="24" rx="10" fill="#e5e7eb" stroke="#111827" stroke-width="1"/>
<text x="90" y="501" font-family="Segoe UI, Arial, sans-serif" font-size="14" font-weight="700" fill="#111827" text-anchor="start">GPIO3</text>
<text x="192" y="501" font-family="Segoe UI, Arial, sans-serif" font-size="13" font-weight="400" fill="#111827" text-anchor="start">Strapping pin</text>
<line x1="380" y1="496" x2="422" y2="496" stroke="#94a3b8" stroke-width="1" stroke-linecap="round"/>
<circle cx="430" cy="526" r="5" fill="#e2e8f0" stroke="#cbd5e1" stroke-width="1"/>
<rect x="80" y="511" width="300" height="24" rx="10" fill="#e5e7eb" stroke="#111827" stroke-width="1"/>
<text x="90" y="528" font-family="Segoe UI, Arial, sans-serif" font-size="14" font-weight="700" fill="#111827" text-anchor="start">GPIO46</text>
<text x="192" y="528" font-family="Segoe UI, Arial, sans-serif" font-size="13" font-weight="400" fill="#111827" text-anchor="start">Strapping pin</text>
<line x1="380" y1="523" x2="422" y2="523" stroke="#94a3b8" stroke-width="1" stroke-linecap="round"/>
<circle cx="430" cy="553" r="5" fill="#e2e8f0" stroke="#cbd5e1" stroke-width="1"/>
<rect x="80" y="538" width="300" height="24" rx="10" fill="#dceafe" stroke="#1d4ed8" stroke-width="1"/>
<text x="90" y="555" font-family="Segoe UI, Arial, sans-serif" font-size="14" font-weight="700" fill="#111827" text-anchor="start">GPIO9</text>
<text x="192" y="555" font-family="Segoe UI, Arial, sans-serif" font-size="13" font-weight="400" fill="#1d4ed8" text-anchor="start">Pair 2 moisture</text>
<line x1="380" y1="550" x2="422" y2="550" stroke="#94a3b8" stroke-width="1" stroke-linecap="round"/>
<circle cx="430" cy="580" r="5" fill="#e2e8f0" stroke="#cbd5e1" stroke-width="1"/>
<rect x="80" y="565" width="300" height="24" rx="10" fill="#dceafe" stroke="#1d4ed8" stroke-width="1"/>
<text x="90" y="582" font-family="Segoe UI, Arial, sans-serif" font-size="14" font-weight="700" fill="#111827" text-anchor="start">GPIO10</text>
<text x="192" y="582" font-family="Segoe UI, Arial, sans-serif" font-size="13" font-weight="400" fill="#1d4ed8" text-anchor="start">Pair 1 moisture</text>
<line x1="380" y1="577" x2="422" y2="577" stroke="#94a3b8" stroke-width="1" stroke-linecap="round"/>
<circle cx="430" cy="607" r="5" fill="#e2e8f0" stroke="#cbd5e1" stroke-width="1"/>
<rect x="80" y="592" width="300" height="24" rx="10" fill="#dcfce7" stroke="#166534" stroke-width="1"/>
<text x="90" y="609" font-family="Segoe UI, Arial, sans-serif" font-size="14" font-weight="700" fill="#111827" text-anchor="start">GPIO11</text>
<text x="192" y="609" font-family="Segoe UI, Arial, sans-serif" font-size="13" font-weight="400" fill="#166534" text-anchor="start">OLED SDA</text>
<line x1="380" y1="604" x2="422" y2="604" stroke="#94a3b8" stroke-width="1" stroke-linecap="round"/>
<circle cx="430" cy="634" r="5" fill="#e2e8f0" stroke="#cbd5e1" stroke-width="1"/>
<rect x="80" y="619" width="300" height="24" rx="10" fill="#dcfce7" stroke="#166534" stroke-width="1"/>
<text x="90" y="636" font-family="Segoe UI, Arial, sans-serif" font-size="14" font-weight="700" fill="#111827" text-anchor="start">GPIO12</text>
<text x="192" y="636" font-family="Segoe UI, Arial, sans-serif" font-size="13" font-weight="400" fill="#166534" text-anchor="start">OLED SCL</text>
<line x1="380" y1="631" x2="422" y2="631" stroke="#94a3b8" stroke-width="1" stroke-linecap="round"/>
<circle cx="430" cy="661" r="5" fill="#e2e8f0" stroke="#cbd5e1" stroke-width="1"/>
<rect x="80" y="646" width="300" height="24" rx="10" fill="#fef3c7" stroke="#92400e" stroke-width="1"/>
<text x="90" y="663" font-family="Segoe UI, Arial, sans-serif" font-size="14" font-weight="700" fill="#111827" text-anchor="start">GPIO13</text>
<text x="192" y="663" font-family="Segoe UI, Arial, sans-serif" font-size="13" font-weight="400" fill="#92400e" text-anchor="start">Future single button</text>
<line x1="380" y1="658" x2="422" y2="658" stroke="#94a3b8" stroke-width="1" stroke-linecap="round"/>
<circle cx="430" cy="688" r="5" fill="#e2e8f0" stroke="#cbd5e1" stroke-width="1"/>
<rect x="80" y="673" width="300" height="24" rx="10" fill="#fce7f3" stroke="#be185d" stroke-width="1"/>
<text x="90" y="690" font-family="Segoe UI, Arial, sans-serif" font-size="14" font-weight="700" fill="#111827" text-anchor="start">GPIO14</text>
<text x="192" y="690" font-family="Segoe UI, Arial, sans-serif" font-size="13" font-weight="400" fill="#be185d" text-anchor="start">Pair 1 relay</text>
<line x1="380" y1="685" x2="422" y2="685" stroke="#94a3b8" stroke-width="1" stroke-linecap="round"/>
<circle cx="430" cy="715" r="5" fill="#e2e8f0" stroke="#cbd5e1" stroke-width="1"/>
<rect x="80" y="700" width="300" height="24" rx="10" fill="#ffffff" stroke="#94a3b8" stroke-width="1"/>
<text x="90" y="717" font-family="Segoe UI, Arial, sans-serif" font-size="14" font-weight="700" fill="#111827" text-anchor="start">5VIN</text>
<line x1="380" y1="712" x2="422" y2="712" stroke="#94a3b8" stroke-width="1" stroke-linecap="round"/>
<circle cx="430" cy="742" r="5" fill="#e2e8f0" stroke="#cbd5e1" stroke-width="1"/>
<rect x="80" y="727" width="300" height="24" rx="10" fill="#ffffff" stroke="#94a3b8" stroke-width="1"/>
<text x="90" y="744" font-family="Segoe UI, Arial, sans-serif" font-size="14" font-weight="700" fill="#111827" text-anchor="start">GND</text>
<line x1="380" y1="739" x2="422" y2="739" stroke="#94a3b8" stroke-width="1" stroke-linecap="round"/>
<circle cx="1170" cy="175" r="5" fill="#e2e8f0" stroke="#cbd5e1" stroke-width="1"/>
<rect x="1220" y="160" width="300" height="24" rx="10" fill="#ffffff" stroke="#94a3b8" stroke-width="1"/>
<text x="1230" y="177" font-family="Segoe UI, Arial, sans-serif" font-size="14" font-weight="700" fill="#111827" text-anchor="start">GND</text>
<line x1="1178" y1="172" x2="1220" y2="172" stroke="#94a3b8" stroke-width="1" stroke-linecap="round"/>
<circle cx="1170" cy="202" r="5" fill="#e2e8f0" stroke="#cbd5e1" stroke-width="1"/>
<rect x="1220" y="187" width="300" height="24" rx="10" fill="#e5e7eb" stroke="#111827" stroke-width="1"/>
<text x="1230" y="204" font-family="Segoe UI, Arial, sans-serif" font-size="14" font-weight="700" fill="#111827" text-anchor="start">GPIO43</text>
<text x="1332" y="204" font-family="Segoe UI, Arial, sans-serif" font-size="13" font-weight="400" fill="#111827" text-anchor="start">UART TX</text>
<line x1="1178" y1="199" x2="1220" y2="199" stroke="#94a3b8" stroke-width="1" stroke-linecap="round"/>
<circle cx="1170" cy="229" r="5" fill="#e2e8f0" stroke="#cbd5e1" stroke-width="1"/>
<rect x="1220" y="214" width="300" height="24" rx="10" fill="#e5e7eb" stroke="#111827" stroke-width="1"/>
<text x="1230" y="231" font-family="Segoe UI, Arial, sans-serif" font-size="14" font-weight="700" fill="#111827" text-anchor="start">GPIO44</text>
<text x="1332" y="231" font-family="Segoe UI, Arial, sans-serif" font-size="13" font-weight="400" fill="#111827" text-anchor="start">UART RX</text>
<line x1="1178" y1="226" x2="1220" y2="226" stroke="#94a3b8" stroke-width="1" stroke-linecap="round"/>
<circle cx="1170" cy="256" r="5" fill="#e2e8f0" stroke="#cbd5e1" stroke-width="1"/>
<rect x="1220" y="241" width="300" height="24" rx="10" fill="#dceafe" stroke="#1d4ed8" stroke-width="1"/>
<text x="1230" y="258" font-family="Segoe UI, Arial, sans-serif" font-size="14" font-weight="700" fill="#111827" text-anchor="start">GPIO1</text>
<text x="1332" y="258" font-family="Segoe UI, Arial, sans-serif" font-size="13" font-weight="400" fill="#1d4ed8" text-anchor="start">Pair 8 moisture</text>
<line x1="1178" y1="253" x2="1220" y2="253" stroke="#94a3b8" stroke-width="1" stroke-linecap="round"/>
<circle cx="1170" cy="283" r="5" fill="#e2e8f0" stroke="#cbd5e1" stroke-width="1"/>
<rect x="1220" y="268" width="300" height="24" rx="10" fill="#fee2e2" stroke="#b91c1c" stroke-width="1"/>
<text x="1230" y="285" font-family="Segoe UI, Arial, sans-serif" font-size="14" font-weight="700" fill="#111827" text-anchor="start">GPIO2</text>
<text x="1332" y="285" font-family="Segoe UI, Arial, sans-serif" font-size="13" font-weight="400" fill="#b91c1c" text-anchor="start">Battery sense</text>
<line x1="1178" y1="280" x2="1220" y2="280" stroke="#94a3b8" stroke-width="1" stroke-linecap="round"/>
<circle cx="1170" cy="310" r="5" fill="#e2e8f0" stroke="#cbd5e1" stroke-width="1"/>
<rect x="1220" y="295" width="300" height="24" rx="10" fill="#fce7f3" stroke="#be185d" stroke-width="1"/>
<text x="1230" y="312" font-family="Segoe UI, Arial, sans-serif" font-size="14" font-weight="700" fill="#111827" text-anchor="start">GPIO42</text>
<text x="1332" y="312" font-family="Segoe UI, Arial, sans-serif" font-size="13" font-weight="400" fill="#be185d" text-anchor="start">Pair 8 relay</text>
<line x1="1178" y1="307" x2="1220" y2="307" stroke="#94a3b8" stroke-width="1" stroke-linecap="round"/>
<circle cx="1170" cy="337" r="5" fill="#e2e8f0" stroke="#cbd5e1" stroke-width="1"/>
<rect x="1220" y="322" width="300" height="24" rx="10" fill="#fce7f3" stroke="#be185d" stroke-width="1"/>
<text x="1230" y="339" font-family="Segoe UI, Arial, sans-serif" font-size="14" font-weight="700" fill="#111827" text-anchor="start">GPIO41</text>
<text x="1332" y="339" font-family="Segoe UI, Arial, sans-serif" font-size="13" font-weight="400" fill="#be185d" text-anchor="start">Pair 7 relay</text>
<line x1="1178" y1="334" x2="1220" y2="334" stroke="#94a3b8" stroke-width="1" stroke-linecap="round"/>
<circle cx="1170" cy="364" r="5" fill="#e2e8f0" stroke="#cbd5e1" stroke-width="1"/>
<rect x="1220" y="349" width="300" height="24" rx="10" fill="#fce7f3" stroke="#be185d" stroke-width="1"/>
<text x="1230" y="366" font-family="Segoe UI, Arial, sans-serif" font-size="14" font-weight="700" fill="#111827" text-anchor="start">GPIO40</text>
<text x="1332" y="366" font-family="Segoe UI, Arial, sans-serif" font-size="13" font-weight="400" fill="#be185d" text-anchor="start">Pair 6 relay</text>
<line x1="1178" y1="361" x2="1220" y2="361" stroke="#94a3b8" stroke-width="1" stroke-linecap="round"/>
<circle cx="1170" cy="391" r="5" fill="#e2e8f0" stroke="#cbd5e1" stroke-width="1"/>
<rect x="1220" y="376" width="300" height="24" rx="10" fill="#fce7f3" stroke="#be185d" stroke-width="1"/>
<text x="1230" y="393" font-family="Segoe UI, Arial, sans-serif" font-size="14" font-weight="700" fill="#111827" text-anchor="start">GPIO39</text>
<text x="1332" y="393" font-family="Segoe UI, Arial, sans-serif" font-size="13" font-weight="400" fill="#be185d" text-anchor="start">Pair 5 relay</text>
<line x1="1178" y1="388" x2="1220" y2="388" stroke="#94a3b8" stroke-width="1" stroke-linecap="round"/>
<circle cx="1170" cy="418" r="5" fill="#e2e8f0" stroke="#cbd5e1" stroke-width="1"/>
<rect x="1220" y="403" width="300" height="24" rx="10" fill="#fce7f3" stroke="#be185d" stroke-width="1"/>
<text x="1230" y="420" font-family="Segoe UI, Arial, sans-serif" font-size="14" font-weight="700" fill="#111827" text-anchor="start">GPIO38</text>
<text x="1332" y="420" font-family="Segoe UI, Arial, sans-serif" font-size="13" font-weight="400" fill="#be185d" text-anchor="start">Pair 4 relay</text>
<line x1="1178" y1="415" x2="1220" y2="415" stroke="#94a3b8" stroke-width="1" stroke-linecap="round"/>
<circle cx="1170" cy="445" r="5" fill="#e2e8f0" stroke="#cbd5e1" stroke-width="1"/>
<rect x="1220" y="430" width="300" height="24" rx="10" fill="#e5e7eb" stroke="#111827" stroke-width="1"/>
<text x="1230" y="447" font-family="Segoe UI, Arial, sans-serif" font-size="14" font-weight="700" fill="#111827" text-anchor="start">GPIO37</text>
<text x="1332" y="447" font-family="Segoe UI, Arial, sans-serif" font-size="13" font-weight="400" fill="#111827" text-anchor="start">PSRAM unavailable</text>
<line x1="1178" y1="442" x2="1220" y2="442" stroke="#94a3b8" stroke-width="1" stroke-linecap="round"/>
<circle cx="1170" cy="472" r="5" fill="#e2e8f0" stroke="#cbd5e1" stroke-width="1"/>
<rect x="1220" y="457" width="300" height="24" rx="10" fill="#e5e7eb" stroke="#111827" stroke-width="1"/>
<text x="1230" y="474" font-family="Segoe UI, Arial, sans-serif" font-size="14" font-weight="700" fill="#111827" text-anchor="start">GPIO36</text>
<text x="1332" y="474" font-family="Segoe UI, Arial, sans-serif" font-size="13" font-weight="400" fill="#111827" text-anchor="start">PSRAM unavailable</text>
<line x1="1178" y1="469" x2="1220" y2="469" stroke="#94a3b8" stroke-width="1" stroke-linecap="round"/>
<circle cx="1170" cy="499" r="5" fill="#e2e8f0" stroke="#cbd5e1" stroke-width="1"/>
<rect x="1220" y="484" width="300" height="24" rx="10" fill="#e5e7eb" stroke="#111827" stroke-width="1"/>
<text x="1230" y="501" font-family="Segoe UI, Arial, sans-serif" font-size="14" font-weight="700" fill="#111827" text-anchor="start">GPIO35</text>
<text x="1332" y="501" font-family="Segoe UI, Arial, sans-serif" font-size="13" font-weight="400" fill="#111827" text-anchor="start">PSRAM unavailable</text>
<line x1="1178" y1="496" x2="1220" y2="496" stroke="#94a3b8" stroke-width="1" stroke-linecap="round"/>
<circle cx="1170" cy="526" r="5" fill="#e2e8f0" stroke="#cbd5e1" stroke-width="1"/>
<rect x="1220" y="511" width="300" height="24" rx="10" fill="#e5e7eb" stroke="#111827" stroke-width="1"/>
<text x="1230" y="528" font-family="Segoe UI, Arial, sans-serif" font-size="14" font-weight="700" fill="#111827" text-anchor="start">GPIO0</text>
<text x="1332" y="528" font-family="Segoe UI, Arial, sans-serif" font-size="13" font-weight="400" fill="#111827" text-anchor="start">Strapping pin</text>
<line x1="1178" y1="523" x2="1220" y2="523" stroke="#94a3b8" stroke-width="1" stroke-linecap="round"/>
<circle cx="1170" cy="553" r="5" fill="#e2e8f0" stroke="#cbd5e1" stroke-width="1"/>
<rect x="1220" y="538" width="300" height="24" rx="10" fill="#e5e7eb" stroke="#111827" stroke-width="1"/>
<text x="1230" y="555" font-family="Segoe UI, Arial, sans-serif" font-size="14" font-weight="700" fill="#111827" text-anchor="start">GPIO45</text>
<text x="1332" y="555" font-family="Segoe UI, Arial, sans-serif" font-size="13" font-weight="400" fill="#111827" text-anchor="start">Strapping pin</text>
<line x1="1178" y1="550" x2="1220" y2="550" stroke="#94a3b8" stroke-width="1" stroke-linecap="round"/>
<circle cx="1170" cy="580" r="5" fill="#e2e8f0" stroke="#cbd5e1" stroke-width="1"/>
<rect x="1220" y="565" width="300" height="24" rx="10" fill="#e5e7eb" stroke="#111827" stroke-width="1"/>
<text x="1230" y="582" font-family="Segoe UI, Arial, sans-serif" font-size="14" font-weight="700" fill="#111827" text-anchor="start">GPIO48</text>
<text x="1332" y="582" font-family="Segoe UI, Arial, sans-serif" font-size="13" font-weight="400" fill="#111827" text-anchor="start">Onboard RGB LED</text>
<line x1="1178" y1="577" x2="1220" y2="577" stroke="#94a3b8" stroke-width="1" stroke-linecap="round"/>
<circle cx="1170" cy="607" r="5" fill="#e2e8f0" stroke="#cbd5e1" stroke-width="1"/>
<rect x="1220" y="592" width="300" height="24" rx="10" fill="#fce7f3" stroke="#be185d" stroke-width="1"/>
<text x="1230" y="609" font-family="Segoe UI, Arial, sans-serif" font-size="14" font-weight="700" fill="#111827" text-anchor="start">GPIO47</text>
<text x="1332" y="609" font-family="Segoe UI, Arial, sans-serif" font-size="13" font-weight="400" fill="#be185d" text-anchor="start">Pair 3 relay</text>
<line x1="1178" y1="604" x2="1220" y2="604" stroke="#94a3b8" stroke-width="1" stroke-linecap="round"/>
<circle cx="1170" cy="634" r="5" fill="#e2e8f0" stroke="#cbd5e1" stroke-width="1"/>
<rect x="1220" y="619" width="300" height="24" rx="10" fill="#fce7f3" stroke="#be185d" stroke-width="1"/>
<text x="1230" y="636" font-family="Segoe UI, Arial, sans-serif" font-size="14" font-weight="700" fill="#111827" text-anchor="start">GPIO21</text>
<text x="1332" y="636" font-family="Segoe UI, Arial, sans-serif" font-size="13" font-weight="400" fill="#be185d" text-anchor="start">Pair 2 relay</text>
<line x1="1178" y1="631" x2="1220" y2="631" stroke="#94a3b8" stroke-width="1" stroke-linecap="round"/>
<circle cx="1170" cy="661" r="5" fill="#e2e8f0" stroke="#cbd5e1" stroke-width="1"/>
<rect x="1220" y="646" width="300" height="24" rx="10" fill="#e5e7eb" stroke="#111827" stroke-width="1"/>
<text x="1230" y="663" font-family="Segoe UI, Arial, sans-serif" font-size="14" font-weight="700" fill="#111827" text-anchor="start">GPIO20</text>
<text x="1332" y="663" font-family="Segoe UI, Arial, sans-serif" font-size="13" font-weight="400" fill="#111827" text-anchor="start">USB D+</text>
<line x1="1178" y1="658" x2="1220" y2="658" stroke="#94a3b8" stroke-width="1" stroke-linecap="round"/>
<circle cx="1170" cy="688" r="5" fill="#e2e8f0" stroke="#cbd5e1" stroke-width="1"/>
<rect x="1220" y="673" width="300" height="24" rx="10" fill="#e5e7eb" stroke="#111827" stroke-width="1"/>
<text x="1230" y="690" font-family="Segoe UI, Arial, sans-serif" font-size="14" font-weight="700" fill="#111827" text-anchor="start">GPIO19</text>
<text x="1332" y="690" font-family="Segoe UI, Arial, sans-serif" font-size="13" font-weight="400" fill="#111827" text-anchor="start">USB D-</text>
<line x1="1178" y1="685" x2="1220" y2="685" stroke="#94a3b8" stroke-width="1" stroke-linecap="round"/>
<circle cx="1170" cy="715" r="5" fill="#e2e8f0" stroke="#cbd5e1" stroke-width="1"/>
<rect x="1220" y="700" width="300" height="24" rx="10" fill="#ffffff" stroke="#94a3b8" stroke-width="1"/>
<text x="1230" y="717" font-family="Segoe UI, Arial, sans-serif" font-size="14" font-weight="700" fill="#111827" text-anchor="start">GND</text>
<line x1="1178" y1="712" x2="1220" y2="712" stroke="#94a3b8" stroke-width="1" stroke-linecap="round"/>
<circle cx="1170" cy="742" r="5" fill="#e2e8f0" stroke="#cbd5e1" stroke-width="1"/>
<rect x="1220" y="727" width="300" height="24" rx="10" fill="#ffffff" stroke="#94a3b8" stroke-width="1"/>
<text x="1230" y="744" font-family="Segoe UI, Arial, sans-serif" font-size="14" font-weight="700" fill="#111827" text-anchor="start">GND</text>
<line x1="1178" y1="739" x2="1220" y2="739" stroke="#94a3b8" stroke-width="1" stroke-linecap="round"/>
<text x="80" y="810" font-family="Segoe UI, Arial, sans-serif" font-size="20" font-weight="700" fill="#111827" text-anchor="start">Legend</text>
<rect x="80" y="830" width="220" height="26" rx="8" fill="#dceafe" stroke="#1d4ed8" stroke-width="1"/>
<text x="190" y="847" font-family="Segoe UI, Arial, sans-serif" font-size="13" font-weight="600" fill="#1d4ed8" text-anchor="middle">Moisture input</text>
<rect x="330" y="830" width="220" height="26" rx="8" fill="#fce7f3" stroke="#be185d" stroke-width="1"/>
<text x="440" y="847" font-family="Segoe UI, Arial, sans-serif" font-size="13" font-weight="600" fill="#be185d" text-anchor="middle">Relay output</text>
<rect x="580" y="830" width="220" height="26" rx="8" fill="#fee2e2" stroke="#b91c1c" stroke-width="1"/>
<text x="690" y="847" font-family="Segoe UI, Arial, sans-serif" font-size="13" font-weight="600" fill="#b91c1c" text-anchor="middle">Battery sense</text>
<rect x="80" y="864" width="220" height="26" rx="8" fill="#dcfce7" stroke="#166534" stroke-width="1"/>
<text x="190" y="881" font-family="Segoe UI, Arial, sans-serif" font-size="13" font-weight="600" fill="#166534" text-anchor="middle">OLED / future UI</text>
<rect x="330" y="864" width="220" height="26" rx="8" fill="#e5e7eb" stroke="#111827" stroke-width="1"/>
<text x="440" y="881" font-family="Segoe UI, Arial, sans-serif" font-size="13" font-weight="600" fill="#111827" text-anchor="middle">Reserved / risky</text>
<rect x="580" y="864" width="220" height="26" rx="8" fill="#f3f4f6" stroke="#374151" stroke-width="1"/>
<text x="690" y="881" font-family="Segoe UI, Arial, sans-serif" font-size="13" font-weight="600" fill="#374151" text-anchor="middle">Free expansion</text>
<rect x="1080" y="800" width="440" height="80" rx="16" fill="#ffffff" stroke="#cbd5e1" stroke-width="1"/>
<text x="1100" y="826" font-family="Segoe UI, Arial, sans-serif" font-size="18" font-weight="700" fill="#111827" text-anchor="start">Board-specific notes</text>
<text x="1100" y="848" font-family="Segoe UI, Arial, sans-serif" font-size="13" font-weight="400" fill="#111827" text-anchor="start">GPIO48 stays reserved for the onboard RGB LED.</text>
<text x="1100" y="866" font-family="Segoe UI, Arial, sans-serif" font-size="13" font-weight="400" fill="#111827" text-anchor="start">GPIO15/GPIO16 now gate sensor and boost power; GPIO13 remains deferred.</text>
</svg>
